<svg width="180" height="192" viewBox="0 0 180 192" fill="none" xmlns="http://www.w3.org/2000/svg">
<path d="M20.2827 115.729C26.0406 117.687 31.3719 119.548 36.7565 121.36C46.9394 124.837 57.1222 128.362 67.3051 131.888C68.318 132.23 69.3309 132.965 70.0774 133.699C76.4748 139.869 82.8193 146.137 89.2168 152.307C89.3767 152.502 89.5899 152.6 89.9632 152.894C97.5335 146.822 104.678 140.408 110.968 132.867C108.463 131.986 106.277 131.153 104.038 130.419C87.031 124.543 70.0239 118.667 53.017 112.791C40.0618 108.335 27.0535 103.83 14.0983 99.3739C12.8188 98.9332 12.6574 97.5962 12.3908 96.323C9.03207 84.1303 7.80616 75.5763 5.40707 63.041C4.44744 56.8222 3.48904 49.0749 2.58272 42.7092C0.771398 29.9873 0.0236506 17.2654 0.0236506 2.3567C0.0236506 2.06288 -0.029603 0.538627 0.0237103 0C0.610156 0.195865 3.98291 1.67053 4.40941 1.81741C17.2046 6.42025 27.6933 10.5 40.4884 15.1029C54.883 20.2933 69.2776 25.4837 83.6188 30.6741C88.6837 32.535 93.5352 31.8003 98.44 29.9886C117.153 23.1823 135.919 16.4739 154.632 9.71656C162.523 6.8765 170.466 4.03647 178.357 1.14745C178.73 1.00054 179.156 0.902618 179.529 0.80467C181.769 35.9136 175.851 69.9941 165.295 103.683C162.043 102.557 158.791 101.382 155.539 100.255C149.034 97.954 142.583 95.6524 136.079 93.4C134.96 93.0085 134.586 92.5677 134.853 91.3924C137.092 81.942 139.331 72.5403 141.251 63.041C142.264 58.0954 142.637 53.0518 143.276 48.0571C143.33 47.6164 143.276 47.1268 143.276 46.3434C140.771 47.2738 138.478 48.0571 136.239 48.8896C121.791 54.325 107.343 59.7602 92.9487 65.2445C91.5092 65.783 90.2296 65.8811 88.6837 65.3423C71.9967 59.6623 55.3096 54.031 38.6224 48.3511C37.9294 48.1063 37.2363 47.9593 36.2235 47.6656C36.7033 50.3587 37.0764 52.807 37.503 55.2553C38.5159 61.1312 39.6355 67.0073 40.5951 72.8831C40.8083 74.1563 41.3414 74.8419 42.6742 75.2825C53.2304 78.9549 63.7864 82.7253 74.3423 86.4468C89.4299 91.7842 104.571 97.1704 119.659 102.508C132.561 107.062 145.409 111.664 158.311 116.17C159.43 116.561 159.644 116.953 159.217 117.981C154.632 129.146 148.768 139.673 141.197 149.369C135.546 156.567 128.775 162.883 121.471 168.612C111.662 176.349 101.532 183.841 91.5627 191.431C90.603 192.165 89.9098 192.214 88.8437 191.431C76.8482 182.861 65.2258 173.803 55.043 163.422C50.1915 158.525 45.7131 153.237 41.768 147.753C34.6773 137.861 28.1199 127.628 21.349 117.541C21.0291 117.149 20.8158 116.61 20.2827 115.729Z" fill="#EF0000"/>
</svg>
